<svg width="248" height="86" viewBox="0 0 248 86" fill="none" xmlns="http://www.w3.org/2000/svg">
<path fill-rule="evenodd" clip-rule="evenodd" d="M73 59.5754C73 64.46 71.8594 68.5838 69.5781 71.9469C67.2969 75.3101 64.3953 78.0326 60.8734 80.1145C57.3514 82.1965 53.4293 83.6979 49.1069 84.6187C44.7845 85.5396 40.5823 86 36.5 86C32.5778 86 28.5156 85.5996 24.3133 84.7989C20.111 83.9981 16.2489 82.6569 12.727 80.7751C9.20503 78.8934 6.26344 76.4111 3.90214 73.3282C1.54083 70.2453 0.240133 66.4218 0 61.8575C0 61.1369 0.26014 60.5363 0.780428 60.0559C1.30072 59.5754 1.92105 59.3352 2.64145 59.3352H18.6102C19.0905 59.3352 19.5107 59.3752 19.8709 59.4553C20.2311 59.5354 20.5713 59.6555 20.8914 59.8156C21.4518 60.1359 22.1321 60.6965 22.9326 61.4972C24.2133 64.0596 26.1143 65.8012 28.6357 66.7221C31.1571 67.6429 33.7785 68.1034 36.5 68.1034C37.7007 68.1034 39.0814 68.0233 40.6423 67.8631C42.2031 67.703 43.6439 67.3627 44.9646 66.8422C46.2854 66.3217 47.426 65.561 48.3865 64.5601C49.347 63.5591 49.8273 62.2579 49.8273 60.6564C49.8273 58.4944 49.0269 56.933 47.426 55.9721C45.8251 55.0112 44.1442 54.2505 42.3832 53.6899C41.0225 53.2095 39.4016 52.7491 37.5206 52.3087C35.6395 51.8682 33.4583 51.4078 30.977 50.9274C27.2949 50.2067 23.733 49.2658 20.2911 48.1047C16.8492 46.9437 13.7876 45.4022 11.1061 43.4804C8.4246 41.5586 6.26344 39.1364 4.62253 36.2137C2.98163 33.291 2.16118 29.7077 2.16118 25.4637C2.16118 20.1787 3.62197 15.6346 6.54359 11.831C9.4652 8.02745 13.2873 5.12478 18.0099 3.12291C23.1327 1.04096 29.0159 0 35.6595 0C38.301 0 41.0425 0.220203 43.884 0.660615C46.7256 1.10103 49.4871 1.82169 52.1686 2.82263C54.8501 3.82356 57.3514 5.14478 59.6727 6.78631C61.994 8.42785 63.9951 10.4097 65.676 12.7318C68.3975 16.2551 69.8783 19.8184 70.1184 23.4218C70.1184 24.0624 69.8583 24.6629 69.338 25.2235C68.8177 25.784 68.2374 26.0642 67.597 26.0642H50.7878C49.1069 26.0642 47.7862 25.3436 46.8257 23.9022C46.3454 22.2207 45.1047 20.7793 43.1036 19.5782C40.9424 18.4572 38.4611 17.8966 35.6595 17.8966C34.4589 17.8966 33.2382 17.9767 31.9975 18.1369C30.7568 18.297 29.6162 18.6574 28.5757 19.2179C27.5351 19.7784 26.6946 20.5191 26.0543 21.4399C25.4139 22.3608 25.0938 23.5419 25.0938 24.9832C25.0938 27.2253 26.2944 29.027 28.6957 30.3883C31.0971 31.6695 35.5795 32.9907 42.1431 34.352C45.9052 35.0726 49.6472 35.9334 53.3692 36.9344C57.0913 37.9353 60.3931 39.3566 63.2747 41.1983C66.1563 43.04 68.4975 45.4222 70.2985 48.345C72.0995 51.2677 73 55.0112 73 59.5754ZM165.997 3C166.878 3 167.599 3.25838 168.159 3.77514C168.72 4.29191 169 5.02729 169 5.98132V83.1379C169 84.0125 168.72 84.6882 168.159 85.1652C167.599 85.7217 166.878 86 165.997 86H150.742C149.942 86 149.241 85.7019 148.64 85.1056C148.04 84.5093 147.74 83.8535 147.74 83.1379V42.3534C147.74 41.9559 147.539 41.7572 147.139 41.7572C146.899 41.7572 146.699 41.8367 146.538 41.9957L134.887 63.342C133.846 65.1705 132.445 66.0848 130.683 66.0848H124.197C122.515 66.0848 121.114 65.1705 119.993 63.342L108.462 42.1149C108.301 41.8764 108.101 41.7572 107.861 41.7572C107.461 41.7572 107.26 41.9559 107.26 42.3534V83.1379C107.26 83.933 106.94 84.6087 106.3 85.1652C105.739 85.7217 105.018 86 104.137 86H89.0029C88.122 86 87.4014 85.7217 86.8408 85.1652C86.2803 84.6882 86 84.0125 86 83.1379V12.898C86 11.2284 86.3603 9.75767 87.081 8.48563C87.8017 7.2136 88.6826 6.18008 89.7236 5.38506C90.7646 4.59003 91.8456 3.99377 92.9667 3.59626C94.0878 3.19875 95.0487 3 95.8495 3H102.576C104.498 3 105.939 3.83476 106.9 5.50431L126.839 41.1609C126.919 41.3994 127.12 41.5187 127.44 41.5187C127.68 41.5187 127.88 41.3994 128.041 41.1609L148.1 5.50431C149.061 3.83476 150.502 3 152.424 3H165.997ZM184 13.3601V83.023C184 83.8168 184.302 84.5115 184.907 85.1069C185.512 85.7023 186.218 86 187.025 86H244.854C245.742 86 246.488 85.742 247.093 85.226C247.698 84.7099 248 83.9756 248 83.023V71.3529C248 69.2888 246.951 68.2568 244.854 68.2568H209.527C208.398 68.2568 207.511 67.8599 206.866 67.066C206.221 66.2721 205.898 65.4386 205.898 64.5653V58.9684C205.898 57.3807 205.253 55.9517 203.962 54.6815C202.672 53.4113 201.099 52.7762 199.244 52.7762H235.902C236.789 52.7762 237.535 52.4785 238.14 51.8831C238.745 51.2877 239.047 50.5533 239.047 49.6801V38.9627C239.047 38.0894 238.745 37.3551 238.14 36.7597C237.535 36.1643 236.789 35.8666 235.902 35.8666H209.527C208.318 35.8666 207.41 35.4696 206.805 34.6758C206.2 33.8819 205.898 33.0483 205.898 32.175V27.1736C205.898 25.5858 205.273 24.1172 204.023 22.7676C202.773 21.418 201.18 20.7432 199.244 20.7432H243.887C244.854 20.7432 245.621 20.4653 246.185 19.9096C246.75 19.4333 247.032 18.7585 247.032 17.8852V6.09613C247.032 5.22286 246.73 4.48853 246.125 3.89311C245.52 3.2977 244.774 3 243.887 3H194.526C191.703 3 189.243 3.97249 187.146 5.9175C185.049 7.86252 184 10.3434 184 13.3601Z" fill="url(#paint0_linear_7944_5313)"/>
<defs>
<linearGradient id="paint0_linear_7944_5313" x1="175.454" y1="-42.1136" x2="92.388" y2="100.978" gradientUnits="userSpaceOnUse">
<stop stop-color="#00B8D9"/>
<stop offset="1" stop-color="#7101CD"/>
</linearGradient>
</defs>
</svg>
